<?xml version="1.0" encoding="UTF-8"?>
<svg version="1.1" xmlns="http://www.w3.org/2000/svg" width="190" height="190">
<path d="M0 0 C20.84413603 -0.02332712 41.68826992 -0.04097826 62.53241634 -0.05181217 C72.21001051 -0.05697553 81.88759658 -0.06401897 91.56518555 -0.07543945 C99.99700331 -0.08538509 108.42881521 -0.09185314 116.86063868 -0.09408849 C121.32807392 -0.09539581 125.7954924 -0.09848295 130.26292229 -0.10573006 C134.4628416 -0.11248838 138.66273713 -0.11461735 142.86266136 -0.11310768 C144.40868509 -0.11338409 145.95470956 -0.11539033 147.50072861 -0.11920547 C149.60235776 -0.1241398 151.70389572 -0.12299928 153.80552673 -0.12025452 C154.98449996 -0.12117631 156.16347319 -0.1220981 157.37817287 -0.12304783 C160 0 160 0 161 1 C161.09454078 3.00111616 161.11741753 5.00562779 161.11352539 7.00897217 C161.1134549 8.31572906 161.1133844 9.62248596 161.11331177 10.96884155 C161.10817697 12.43072539 161.10295553 13.89260893 161.09765625 15.35449219 C161.09573848 16.88345288 161.09427402 18.41241419 161.0932312 19.94137573 C161.09006193 23.24208477 161.0837808 26.54276845 161.07516479 29.84346771 C161.06168191 35.06208611 161.05575629 40.28069595 161.05102539 45.49932861 C161.03895864 57.52505202 161.01693494 69.55075345 160.99479675 81.57646179 C160.97462463 92.58466778 160.95654685 103.59286627 160.94658184 114.60108685 C160.94159678 119.78888808 160.9317322 124.97665033 160.91815186 130.16443586 C160.91069067 133.39433314 160.90737617 136.62422505 160.9051857 139.85412979 C160.90331392 141.35171199 160.89971342 142.84929319 160.89425278 144.34686661 C160.88702999 146.39226438 160.88658401 148.43768274 160.88647461 150.48309326 C160.884254 151.62758312 160.88203339 152.77207298 160.87974548 153.95124435 C160.99028453 156.75368831 161.35829194 159.27554174 162 162 C159.18026 163.40987 156.84013309 163.12272311 153.68527222 163.12025452 C153.03019499 163.12110894 152.37511776 163.12196337 151.70018971 163.12284368 C149.49524879 163.12449671 147.29038319 163.11898001 145.08544922 163.11352539 C143.5088196 163.11324345 141.93218985 163.11340138 140.3555603 163.1139679 C136.06654789 163.11425562 131.77756327 163.10836291 127.48855734 163.10139394 C123.00955438 163.09515626 118.53055083 163.09455627 114.05154419 163.09336853 C105.56593886 163.09025644 97.08034637 163.08204469 88.59474671 163.07201904 C78.93587739 163.06085412 69.27700747 163.0553465 59.61813331 163.05032361 C39.74541503 163.03986198 19.87270832 163.0222649 0 163 C-0.15402643 142.78106454 -0.30205602 122.56209364 -0.4429636 102.3430624 C-0.50853019 92.95484062 -0.57605264 83.56664055 -0.64819336 74.1784668 C-0.71107247 65.99492312 -0.77026771 57.81136247 -0.82505554 49.62776047 C-0.85418836 45.29537281 -0.88515484 40.96301589 -0.92053413 36.63067436 C-0.95379511 32.55059792 -0.98211974 28.4705166 -1.00670624 24.39037895 C-1.01657725 22.89524024 -1.02823089 21.40011204 -1.04183006 19.90500259 C-1.06017775 17.85804867 -1.07201088 15.81115303 -1.08229065 13.7641449 C-1.09058679 12.6201998 -1.09888292 11.47625471 -1.10743046 10.29764462 C-0.99360002 6.80354879 -0.55470013 3.44937333 0 0 Z M6 9 C6 56.85 6 104.7 6 154 C31.9003564 154.20691665 31.9003564 154.20691665 57.80078125 154.40429688 C68.35761003 154.48262694 78.91442329 154.56202762 89.47119141 154.64819336 C97.15843892 154.7109329 104.84570403 154.77013804 112.53301156 154.82505554 C116.60534562 154.85427256 120.67764843 154.88528881 124.74993515 154.92053413 C128.57965857 154.95362434 132.40938746 154.98200346 136.23917389 155.00670624 C137.64772257 155.01663365 139.05626013 155.02830998 140.4647789 155.04183006 C142.38206961 155.05997698 144.29942111 155.07132821 146.21676636 155.08229065 C147.29157698 155.09058679 148.3663876 155.09888292 149.47376823 155.10743046 C151.9954127 155.1726302 151.9954127 155.1726302 154 154 C154 106.15 154 58.3 154 9 C105.16 9 56.32 9 6 9 Z " fill="#B38334" transform="translate(14,13)"/>
<path d="M0 0 C62.37 0 124.74 0 189 0 C190.1492161 20.68588978 190.1492161 20.68588978 190.12939453 31.01928711 C190.13202301 32.77767914 190.13202301 32.77767914 190.13470459 34.57159424 C190.13904968 38.39019319 190.13620642 42.20874444 190.1328125 46.02734375 C190.13303698 48.74597713 190.13446104 51.46460972 190.13571167 54.1832428 C190.13752102 59.87420138 190.13516626 65.56514692 190.13037109 71.25610352 C190.12558604 76.99895076 190.12550771 82.74177197 190.13037109 88.48461914 C190.15289807 115.82669639 190.1692033 143.16711687 189.5546875 170.50390625 C189.53527225 171.41840986 189.51585701 172.33291348 189.49585342 173.27512932 C189.44075204 175.77810444 189.37824404 178.28074481 189.31201172 180.78344727 C189.29569073 181.5120376 189.27936974 182.24062794 189.26255417 182.99129677 C189.11626625 187.88373375 189.11626625 187.88373375 188 189 C179.02686892 190.67784672 169.61749044 190.13404828 160.52490234 190.11352539 C158.74149388 190.11321863 156.9580853 190.11335327 155.1746769 190.11389065 C150.42239476 190.11411532 145.67013809 190.10834246 140.91786194 190.10128021 C136.44955368 190.0955622 131.98125144 190.09531584 127.51293945 190.09460449 C114.4669563 190.08936855 101.42097782 190.07540731 88.375 190.0625 C44.629375 190.0315625 44.629375 190.0315625 0 190 C0 127.3 0 64.6 0 0 Z M3 6 C2.69666817 9.15700781 2.69666817 9.15700781 2.75276184 12.94665527 C2.75034743 13.66974176 2.74793301 14.39282825 2.74544543 15.13782644 C2.73978679 17.57309455 2.74848772 20.00810285 2.75708008 22.44335938 C2.75600773 24.18423026 2.75406976 25.92510079 2.75132751 27.66596985 C2.74646845 32.40347297 2.75414806 37.14088232 2.76428056 41.8783741 C2.77304393 46.82756575 2.77130395 51.77675432 2.7709198 56.72595215 C2.77185723 65.03850887 2.78055178 73.35102915 2.79418945 81.66357422 C2.8099158 91.28500012 2.8151876 100.9063861 2.8144539 110.52782393 C2.81384426 119.76919072 2.81894382 129.01054447 2.82724571 138.25190735 C2.83078345 142.19126996 2.83260966 146.13062795 2.83313942 150.06999207 C2.83414147 154.70578163 2.84022678 159.34153746 2.85030556 163.9773159 C2.85323483 165.68256105 2.85445507 167.38781007 2.85387802 169.09305763 C2.85338987 171.4131896 2.85901789 173.73322603 2.86628723 176.05334473 C2.86796308 177.35416237 2.86963892 178.65498001 2.87136555 179.99521637 C2.79177122 182.924 2.79177122 182.924 4 185 C63.73 185 123.46 185 185 185 C186.47938205 182.04123589 186.12943278 179.39466843 186.13371277 176.09130859 C186.1371111 175.01280419 186.1371111 175.01280419 186.14057809 173.91251183 C186.14693369 171.49113762 186.14608774 169.06981915 186.14526367 166.6484375 C186.14825415 164.91741869 186.15165642 163.18640055 186.15544128 161.4553833 C186.16429583 156.74477032 186.16661998 152.03417549 186.16725707 147.32355499 C186.16820485 143.39682255 186.17188155 139.47009438 186.17542917 135.54336357 C186.18357892 126.28346415 186.18601289 117.02357447 186.18530273 107.76367188 C186.18470149 98.19676336 186.19526136 88.62991115 186.2110464 79.06301689 C186.22409967 70.86088736 186.22948758 62.65877628 186.22884732 54.45663643 C186.22859172 49.55267485 186.23147699 44.64876329 186.24202538 39.74481201 C186.25166946 35.13527059 186.25181107 30.52582743 186.24450874 25.91628265 C186.24345835 24.2207093 186.24585251 22.52512996 186.2518692 20.82956696 C186.25952819 18.52249093 186.25498531 16.21575942 186.24723816 13.90869141 C186.24778293 12.61524811 186.24832769 11.32180481 186.24888897 9.98916626 C186.31438014 6.88371677 186.31438014 6.88371677 184 5 C180.81005258 4.67756502 180.81005258 4.67756502 176.97741699 4.70806885 C176.2461634 4.70086531 175.51490981 4.69366178 174.76149702 4.68623996 C172.29865372 4.66446341 169.83597189 4.65698266 167.37304688 4.64941406 C165.61246644 4.63684845 163.85189187 4.62343632 162.09132385 4.60923767 C157.30016307 4.57328419 152.50901635 4.54997673 147.71776772 4.5294199 C142.71248502 4.50639657 137.70726382 4.47371582 132.70202637 4.44256592 C124.29535557 4.39187681 115.88867241 4.34960769 107.48193359 4.31201172 C97.75135744 4.26836712 88.02094586 4.21030488 78.29049444 4.14476418 C69.9482754 4.08895505 61.60603814 4.04095439 53.26373529 3.9995153 C48.27591917 3.9747279 43.28815851 3.947185 38.30039978 3.91260529 C33.61210587 3.88053363 28.92386675 3.85823461 24.23548698 3.84359932 C22.5108712 3.83659681 20.78626563 3.82613884 19.06169319 3.81204796 C16.7152489 3.79342824 14.36909145 3.78708857 12.02258301 3.78399658 C10.70701668 3.77737629 9.39145035 3.770756 8.03601837 3.76393509 C4.88889222 3.67766549 4.88889222 3.67766549 3 6 Z " fill="#C09F72" transform="translate(0,0)"/>
<path d="M0 0 C0.99 0.33 1.98 0.66 3 1 C3.83979366 3.61439412 4.50770422 6.14451255 5.125 8.8125 C6.96760667 16.04947886 9.37949142 22.81200266 12.4375 29.625 C12.79666504 30.44073486 13.15583008 31.25646973 13.52587891 32.09692383 C17.50200326 40.73608656 21.90181789 47.22273014 30.4375 51.6875 C31.13415771 52.06414795 31.83081543 52.4407959 32.54858398 52.82885742 C43.99025801 58.81903947 56.54832853 61.83851178 69 65 C69 65.99 69 66.98 69 68 C68.00371582 68.27880005 68.00371582 68.27880005 66.98730469 68.56323242 C49.60891938 73.21668565 49.60891938 73.21668565 33 80 C32.1028125 80.44859375 31.205625 80.8971875 30.28125 81.359375 C16.38370294 88.96215074 10.75173035 105.47520057 6.39038086 120.03515625 C5.84407243 122.01877899 5.32175764 124.00656347 4.8125 126 C4.63525391 126.67933594 4.45800781 127.35867187 4.27539062 128.05859375 C3.84646399 129.70474463 3.42266978 131.3522315 3 133 C2.01 133 1.02 133 0 133 C-0.29390625 131.59814453 -0.29390625 131.59814453 -0.59375 130.16796875 C-4.29830371 113.51681635 -10.15911844 93.46584617 -24.8125 83.3125 C-37.00594687 76.28433271 -50.08630737 71.1789796 -64 69 C-64.33 67.68 -64.66 66.36 -65 65 C-63.92069214 64.69147095 -63.92069214 64.69147095 -62.81958008 64.37670898 C-43.62309876 59.03911393 -43.62309876 59.03911393 -26 50 C-25.24203125 49.54367188 -24.4840625 49.08734375 -23.703125 48.6171875 C-12.22174858 41.06365038 -5.86910082 24.64096885 -2.9296875 11.609375 C-2.39471305 9.00486218 -1.9434358 6.40601822 -1.5078125 3.78125 C-1 1 -1 1 0 0 Z M0 27 C-0.37125 28.0725 -0.7425 29.145 -1.125 30.25 C-6.47543895 44.20552279 -12.92494892 54.65107911 -26.875 61 C-29.23993166 62.02633586 -31.61790218 63.01353126 -34 64 C-35.34095569 64.65119893 -36.67883117 65.30953991 -38 66 C-33.79566807 69.51635034 -28.86618411 71.57466622 -23.93164062 73.86328125 C-10.80535879 80.18653229 -5.07577099 93.096758 0 106 C0.99 105.67 1.98 105.34 3 105 C4.45380192 102.05904734 4.45380192 102.05904734 5.75 98.5 C8.30159706 92.16166864 11.29840226 87.03593358 16 82 C16.49757812 81.46117187 16.99515625 80.92234375 17.5078125 80.3671875 C23.483661 74.63157412 32.18068799 70.60643734 40 68 C40 67.01 40 66.02 40 65 C39.18917969 64.731875 38.37835938 64.46375 37.54296875 64.1875 C21.20155374 58.40427513 12.85475224 49.75063857 5.33203125 34.65234375 C4.16555519 32.1200778 3.04892994 29.58279232 2 27 C1.34 27 0.68 27 0 27 Z " fill="#B58C40" transform="translate(93,28)"/>
<path d="M0 0 C62.37 0 124.74 0 189 0 C190.1492161 20.68588978 190.1492161 20.68588978 190.12939453 31.01928711 C190.13202301 32.77767914 190.13202301 32.77767914 190.13470459 34.57159424 C190.13904968 38.39019319 190.13620642 42.20874444 190.1328125 46.02734375 C190.13303698 48.74597713 190.13446104 51.46460972 190.13571167 54.1832428 C190.13752102 59.87420138 190.13516626 65.56514692 190.13037109 71.25610352 C190.12558604 76.99895076 190.12550513 82.74177197 190.13037109 88.48461914 C190.1578444 121.6674363 190.02208468 154.82947993 189 188 C188.34 187.01 187.68 186.02 187 185 C186.67 185.33 186.34 185.66 186 186 C182.95597578 186.09530981 179.93468292 186.12551639 176.89038086 186.11352539 C175.93438492 186.11367142 174.97838898 186.11381744 173.99342346 186.1139679 C170.81720755 186.11326835 167.64104948 186.10547403 164.46484375 186.09765625 C162.26908907 186.09579222 160.07333398 186.09436825 157.87757874 186.09336853 C152.08579367 186.08954219 146.2940335 186.07971091 140.5022583 186.06866455 C134.59721209 186.05845293 128.69216187 186.05387145 122.78710938 186.04882812 C111.19139528 186.03808875 99.59569971 186.02101093 88 186 C88 185.34 88 184.68 88 184 C107.02433563 183.88768841 126.04557965 184.20394321 145.06756592 184.46356201 C149.5801872 184.52486113 154.09282881 184.58462427 158.60546875 184.64453125 C167.403666 184.76154968 176.20183986 184.88022378 185 185 C185.02332644 161.80895512 185.04097792 138.61791217 185.05181217 115.42685795 C185.05697567 104.65964936 185.0640194 93.89244806 185.07543945 83.12524414 C185.08538464 73.74414755 185.09185303 64.36305623 185.09408849 54.98195451 C185.09539588 50.01149782 185.0984835 45.0410562 185.10573006 40.07060432 C185.11248767 35.39791878 185.11461749 30.72525459 185.11310768 26.05256462 C185.11338413 24.33238484 185.11539078 22.61220438 185.11920547 20.89202881 C185.1241387 18.55393339 185.12299968 16.21591996 185.12025452 13.87782288 C185.12117631 12.56611146 185.1220981 11.25440004 185.12304783 9.9029398 C185.33244011 7.10693113 185.33244011 7.10693113 184 6 C181.73472764 5.89061744 179.46598847 5.85306462 177.19810486 5.84178162 C176.47854522 5.83684364 175.75898558 5.83190566 175.0176211 5.82681805 C172.58849139 5.81136869 170.15938825 5.80306244 167.73022461 5.79467773 C165.9961066 5.78510504 164.26199095 5.77509533 162.52787781 5.76467896 C157.80496222 5.73755779 153.08203656 5.71658741 148.3590858 5.69667697 C143.42895199 5.67486173 138.49884945 5.64745129 133.56874084 5.62062073 C124.22605906 5.5706333 114.88335997 5.525717 105.54064423 5.48259836 C94.90718724 5.43327758 84.27376163 5.37834038 73.64033496 5.32291877 C51.76025252 5.20900589 29.88014014 5.10218722 8 5 C8 4.34 8 3.68 8 3 C30.89572826 2.9533223 53.7914487 2.91803194 76.68721485 2.89637566 C87.31761577 2.88605394 97.94798717 2.87197653 108.57836914 2.84912109 C117.84155776 2.8292146 127.10472499 2.81629008 136.36793441 2.81182301 C141.27475899 2.80921098 146.18152239 2.80305303 151.08832741 2.78853989 C155.70358211 2.77499924 160.31875023 2.77077021 164.9340229 2.77378464 C166.6307904 2.77323289 168.3275607 2.76923456 170.02431107 2.76158905 C172.3355135 2.75168274 174.64638624 2.75401518 176.95759583 2.75949097 C178.90027454 2.75672559 178.90027454 2.75672559 180.88219929 2.75390434 C184 3 184 3 187 5 C187.33 3.68 187.66 2.36 188 1 C126.29 1 64.58 1 1 1 C0.67 1.99 0.34 2.98 0 4 C0 2.68 0 1.36 0 0 Z " fill="#DEB266" transform="translate(0,0)"/>
<path d="M0 0 C8.58 0 17.16 0 26 0 C26 0.33 26 0.66 26 1 C17.75 1 9.5 1 1 1 C1.33 2.65 1.66 4.3 2 6 C2.07645966 8.16071229 2.09804617 10.32366473 2.08229065 12.485672 C2.07527162 13.79402165 2.06825258 15.10237131 2.06102085 16.45036793 C2.04801427 17.8989603 2.03491327 19.34755182 2.02172852 20.79614258 C2.01139597 22.34865632 2.00151783 23.90117314 1.99205685 25.45369244 C1.9654907 29.60753461 1.93271359 33.76130596 1.89864349 37.91509247 C1.86760466 41.81426312 1.84217572 45.71346252 1.81628418 49.6126709 C1.73732141 61.01265433 1.64936201 72.41257402 1.5625 83.8125 C1.376875 109.284375 1.19125 134.75625 1 161 C53.14 161 105.28 161 159 161 C159 108.2 159 55.4 159 1 C157.02 0.505 157.02 0.505 155 0 C156.66611905 -0.042721 158.33382885 -0.04063832 160 0 C161 1 161 1 161.12025452 3.54539108 C161.11803391 4.68837284 161.11581329 5.8313546 161.11352539 7.00897217 C161.1134549 8.31572906 161.1133844 9.62248596 161.11331177 10.96884155 C161.10817697 12.43072539 161.10295553 13.89260893 161.09765625 15.35449219 C161.09573848 16.88345288 161.09427402 18.41241419 161.0932312 19.94137573 C161.09006193 23.24208477 161.0837808 26.54276845 161.07516479 29.84346771 C161.06168191 35.06208611 161.05575629 40.28069595 161.05102539 45.49932861 C161.03895864 57.52505202 161.01693494 69.55075345 160.99479675 81.57646179 C160.97462463 92.58466778 160.95654685 103.59286627 160.94658184 114.60108685 C160.94159678 119.78888808 160.9317322 124.97665033 160.91815186 130.16443586 C160.91069067 133.39433314 160.90737617 136.62422505 160.9051857 139.85412979 C160.90331392 141.35171199 160.89971342 142.84929319 160.89425278 144.34686661 C160.88702999 146.39226438 160.88658401 148.43768274 160.88647461 150.48309326 C160.884254 151.62758312 160.88203339 152.77207298 160.87974548 153.95124435 C160.99028453 156.75368831 161.35829194 159.27554174 162 162 C159.18026 163.40987 156.84013309 163.12272311 153.68527222 163.12025452 C153.03019499 163.12110894 152.37511776 163.12196337 151.70018971 163.12284368 C149.49524879 163.12449671 147.29038319 163.11898001 145.08544922 163.11352539 C143.5088196 163.11324345 141.93218985 163.11340138 140.3555603 163.1139679 C136.06654789 163.11425562 131.77756327 163.10836291 127.48855734 163.10139394 C123.00955438 163.09515626 118.53055083 163.09455627 114.05154419 163.09336853 C105.56593886 163.09025644 97.08034637 163.08204469 88.59474671 163.07201904 C78.93587739 163.06085412 69.27700747 163.0553465 59.61813331 163.05032361 C39.74541503 163.03986198 19.87270832 163.0222649 0 163 C-0.15402643 142.78106454 -0.30205602 122.56209364 -0.4429636 102.3430624 C-0.50853019 92.95484062 -0.57605264 83.56664055 -0.64819336 74.1784668 C-0.71107247 65.99492312 -0.77026771 57.81136247 -0.82505554 49.62776047 C-0.85418836 45.29537281 -0.88515484 40.96301589 -0.92053413 36.63067436 C-0.95379511 32.55059792 -0.98211974 28.4705166 -1.00670624 24.39037895 C-1.01657725 22.89524024 -1.02823089 21.40011204 -1.04183006 19.90500259 C-1.06017775 17.85804867 -1.07201088 15.81115303 -1.08229065 13.7641449 C-1.09058679 12.6201998 -1.09888292 11.47625471 -1.10743046 10.29764462 C-1 7 -1 7 0 0 Z " fill="#C29A4C" transform="translate(14,13)"/>
<path d="M0 0 C0.99 0.33 1.98 0.66 3 1 C3 16.84 3 32.68 3 49 C4.98 48.505 4.98 48.505 7 48 C8.46524039 47.91662893 9.93376319 47.88215813 11.40136719 47.88647461 C12.6922525 47.88658791 12.6922525 47.88658791 14.00921631 47.88670349 C14.92914368 47.89186478 15.84907104 47.89702606 16.796875 47.90234375 C18.22003021 47.90446617 18.22003021 47.90446617 19.67193604 47.90663147 C22.69798962 47.91222258 25.72396883 47.92477348 28.75 47.9375 C30.80338435 47.94251615 32.85676986 47.94707885 34.91015625 47.95117188 C39.94013276 47.96218911 44.97005378 47.97944767 50 48 C50.38218767 49.65614657 50.71395102 51.32457024 51 53 C49.37619584 54.62380416 47.57125398 54.14372989 45.32836914 54.16113281 C44.33386246 54.17074036 43.33935577 54.1803479 42.31471252 54.19024658 C40.69133217 54.1966214 40.69133217 54.1966214 39.03515625 54.203125 C37.9315123 54.20882507 36.82786835 54.21452515 35.69078064 54.22039795 C33.35123661 54.22986397 31.01167916 54.23638826 28.67211914 54.24023438 C25.08130825 54.24994912 21.49106723 54.28096177 17.90039062 54.3125 C15.63281592 54.31902865 13.3652371 54.32427966 11.09765625 54.328125 C10.01742691 54.3404718 8.93719757 54.3528186 7.82423401 54.36553955 C6.32774574 54.3610379 6.32774574 54.3610379 4.80102539 54.35644531 C3.92023819 54.36009094 3.03945099 54.36373657 2.13197327 54.36749268 C1.42842209 54.24622009 0.72487091 54.12494751 0 54 C-2.17585822 50.73621267 -2.24605016 49.84095685 -2.22705078 46.06958008 C-2.22689972 45.06876907 -2.22674866 44.06795807 -2.22659302 43.03681946 C-2.21627045 41.95861435 -2.20594788 40.88040924 -2.1953125 39.76953125 C-2.1924826 38.66397385 -2.18965271 37.55841644 -2.18673706 36.4193573 C-2.17553002 32.88362872 -2.15042427 29.3481522 -2.125 25.8125 C-2.11497089 23.41732136 -2.10584492 21.02213876 -2.09765625 18.62695312 C-2.07558897 12.75121589 -2.04210618 6.87562595 -2 1 C-1.34 0.67 -0.68 0.34 0 0 Z " fill="#DAB572" transform="translate(34,103)"/>
<path d="M0 0 C1.32 0.33 2.64 0.66 4 1 C4.02526692 8.38728102 4.0428316 15.77455098 4.05493164 23.16186523 C4.05997363 25.67716895 4.06680703 28.19246972 4.07543945 30.70776367 C4.08751094 34.31429775 4.09322949 37.92079323 4.09765625 41.52734375 C4.10281754 42.65961899 4.10797882 43.79189423 4.11329651 44.95848083 C4.11337204 45.99948441 4.11344757 47.04048798 4.11352539 48.11303711 C4.115746 49.03459091 4.11796661 49.95614471 4.12025452 50.90562439 C4 53 4 53 3 54 C1.40389018 54.09333705 -0.19633428 54.11745372 -1.79516602 54.11352539 C-2.81614883 54.11344986 -3.83713165 54.11337433 -4.88905334 54.11329651 C-5.9994548 54.10813522 -7.10985626 54.10297394 -8.25390625 54.09765625 C-9.38448959 54.0962413 -10.51507294 54.09482635 -11.67991638 54.09336853 C-15.30747065 54.08775019 -18.93496424 54.07519458 -22.5625 54.0625 C-25.01497307 54.05748736 -27.4674471 54.05292405 -29.91992188 54.04882812 C-35.94663545 54.0377748 -41.97331339 54.02101884 -48 54 C-48.38218767 52.34385343 -48.71395102 50.67542976 -49 49 C-47.45984551 47.45984551 -46.03931712 47.87281993 -43.89501953 47.87060547 C-43.02386505 47.86745331 -42.15271057 47.86430115 -41.25515747 47.86105347 C-40.30728363 47.8630777 -39.35940979 47.86510193 -38.3828125 47.8671875 C-36.93066849 47.86575241 -36.93066849 47.86575241 -35.44918823 47.86428833 C-33.39630061 47.86360629 -31.34341085 47.86546224 -29.29052734 47.86962891 C-26.14545844 47.87496529 -23.00053311 47.86969069 -19.85546875 47.86328125 C-17.86458302 47.86394225 -15.87369737 47.86522388 -13.8828125 47.8671875 C-12.93898712 47.86516327 -11.99516174 47.86313904 -11.0227356 47.86105347 C-9.70654739 47.86578171 -9.70654739 47.86578171 -8.36376953 47.87060547 C-7.20580368 47.87179886 -7.20580368 47.87179886 -6.02444458 47.87301636 C-4 48 -4 48 -1 49 C-0.67 32.83 -0.34 16.66 0 0 Z " fill="#D8A85F" transform="translate(152,103)"/>
<path d="M0 0 C0 1.98 0 3.96 0 6 C-15.84 6 -31.68 6 -48 6 C-48 21.51 -48 37.02 -48 53 C-49.98 53.495 -49.98 53.495 -52 54 C-53 53 -53 53 -53.12025452 50.90562439 C-53.1169236 49.52329369 -53.1169236 49.52329369 -53.11352539 48.11303711 C-53.11344986 47.07203354 -53.11337433 46.03102997 -53.11329651 44.95848083 C-53.10813522 43.8262056 -53.10297394 42.69393036 -53.09765625 41.52734375 C-53.0962413 40.37456436 -53.09482635 39.22178497 -53.09336853 38.03407288 C-53.08775005 34.33518936 -53.07519442 30.63636536 -53.0625 26.9375 C-53.05748738 24.43684983 -53.05292406 21.93619871 -53.04882812 19.43554688 C-53.03777462 13.29034412 -53.02101852 7.14517631 -53 1 C-46.89854939 0.85624755 -40.79706858 0.71387927 -34.69555664 0.57275391 C-32.62295678 0.52462527 -30.55036543 0.47612852 -28.4777832 0.42724609 C-25.48651292 0.35676173 -22.4952138 0.28763244 -19.50390625 0.21875 C-18.58791153 0.19687622 -17.67191681 0.17500244 -16.72816467 0.15246582 C-11.15041266 0.02560083 -5.57921037 -0.01984601 0 0 Z " fill="#C4984F" transform="translate(85,32)"/>
<path d="M0 0 C11.67796853 -0.07248394 23.32798447 0.14853782 35 0.5 C40.61 0.665 46.22 0.83 52 1 C52 18.49 52 35.98 52 54 C50.68 54 49.36 54 48 54 C48 38.16 48 22.32 48 6 C31.83 6 15.66 6 -1 6 C-0.67 4.02 -0.34 2.04 0 0 Z " fill="#D19C51" transform="translate(104,32)"/>
<path d="M0 0 C2.0625 0.4375 2.0625 0.4375 4 1 C3.01 1.66 2.02 2.32 1 3 C0.54957633 6.19184356 0.54957633 6.19184356 0.63923645 10.03604126 C0.63667318 10.76870598 0.6341099 11.5013707 0.63146895 12.25623739 C0.62650721 14.72394232 0.64306273 17.19104236 0.65942383 19.65869141 C0.66026959 21.42251064 0.65979596 23.18633092 0.65809631 24.95014954 C0.65723293 29.74955663 0.674914 34.54874039 0.69581819 39.34809542 C0.71452802 44.35960551 0.71633092 49.37112029 0.71989441 54.38265991 C0.72923165 63.87766371 0.7538681 73.37256431 0.78394288 82.8675226 C0.81743471 93.67508764 0.83395975 104.48265752 0.84902918 115.29026151 C0.88041623 137.52689868 0.93320929 159.76344285 1 182 C2.39950079 181.99833454 2.39950079 181.99833454 3.82727432 181.99663544 C47.79861821 181.94602234 91.76456583 181.92293629 135.7333374 182.46356201 C141.02921489 182.52753043 146.32515746 182.58567136 151.62109375 182.64453125 C161.74746034 182.75782314 171.8737509 182.87667599 182 183 C182 183.33 182 183.66 182 184 C158.43508193 184.04666466 134.87017076 184.08196164 111.30521584 184.10362434 C100.36426883 184.11394884 89.42335049 184.12803152 78.48242188 184.15087891 C68.94932835 184.17077694 59.41625558 184.18370789 49.88314188 184.18817699 C44.83270918 184.19079047 39.78233586 184.19695749 34.73192215 184.21146011 C29.98288475 184.22498743 25.23393147 184.22923252 20.48487663 184.22621536 C18.73769995 184.22676771 16.9905206 184.23077393 15.24336052 184.23841095 C12.86612507 184.24829646 10.4892112 184.24599253 8.11196899 184.24050903 C7.41353304 184.24633472 6.71509708 184.2521604 5.99549639 184.25816262 C1.22824242 184.22824242 1.22824242 184.22824242 -1 182 C-1.19509867 179.59345712 -1.26498503 177.30222471 -1.24723816 174.89476013 C-1.24965257 174.15463387 -1.25206699 173.41450761 -1.25455457 172.65195328 C-1.26021364 170.15907516 -1.25151197 167.6664508 -1.24291992 165.17358398 C-1.24399225 163.39168223 -1.24593019 161.60978082 -1.24867249 159.82788086 C-1.25353152 154.97887899 -1.24585225 150.12996875 -1.23571944 145.28097796 C-1.22695739 140.21654023 -1.22869602 135.15210552 -1.2290802 130.08766174 C-1.2281428 121.58259542 -1.21944813 113.07756471 -1.20581055 104.57250977 C-1.19007918 94.72498536 -1.18481257 84.87749997 -1.1855461 75.02996391 C-1.18615545 65.57395155 -1.18105881 56.11795196 -1.17275429 46.66194344 C-1.16921441 42.62964847 -1.16739004 38.59735802 -1.16686058 34.56506157 C-1.16585948 29.8217538 -1.15978202 25.07847907 -1.14969444 20.33518219 C-1.14676208 18.58920303 -1.14554555 16.84322007 -1.14612198 15.09723854 C-1.14660914 12.72420877 -1.14099201 10.35127297 -1.13371277 7.97825623 C-1.13526137 7.27827166 -1.13680997 6.5782871 -1.1384055 5.85709089 C-1.11417863 1.11417863 -1.11417863 1.11417863 0 0 Z " fill="#AB985C" transform="translate(3,3)"/>
<path d="M0 0 C4.54295925 0.00632673 9.08591943 0.00684461 13.62888241 0.00802541 C22.19888667 0.01111161 30.76887791 0.01928778 39.33887649 0.0293749 C49.10940653 0.04062108 58.87993725 0.04606774 68.65047216 0.05107033 C88.71890536 0.06147321 108.78732689 0.07901916 128.85575008 0.10139394 C128.85575008 3.40139394 128.85575008 6.70139394 128.85575008 10.10139394 C128.52575008 10.10139394 128.19575008 10.10139394 127.85575008 10.10139394 C127.85575008 8.12139394 127.85575008 6.14139394 127.85575008 4.10139394 C124.31511196 2.92118123 121.53436185 2.98446488 117.79556942 2.99459767 C116.7107164 2.99543273 116.7107164 2.99543273 115.60394716 2.99628466 C113.17417582 2.99932704 110.74448599 3.00951441 108.31473446 3.01960683 C106.57534019 3.02316206 104.83594491 3.02624829 103.09654903 3.02889943 C99.34787963 3.03545599 95.59923395 3.04501897 91.85057735 3.0567944 C85.92664766 3.07505703 80.00272379 3.08467795 74.07877254 3.09271169 C57.23243331 3.1168871 40.38612932 3.15278229 23.53983212 3.1973412 C14.23817188 3.22186787 4.93652545 3.23924257 -4.36516237 3.24890059 C-10.25770884 3.25545518 -16.15014193 3.27103825 -22.04264927 3.29321802 C-25.70402026 3.30492393 -29.36536342 3.308314 -33.02675152 3.30931592 C-34.72836256 3.31146873 -36.42997316 3.31707859 -38.13156033 3.32634664 C-40.44916128 3.3384843 -42.76644631 3.33838889 -45.08406925 3.33517385 C-46.38266628 3.33831625 -47.68126331 3.34145865 -49.01921177 3.34469628 C-52.14424992 3.10139394 -52.14424992 3.10139394 -55.14424992 1.10139394 C-36.77954275 -0.19715882 -18.39838931 -0.0300196 0 0 Z " fill="#CE882A" transform="translate(59.14424991607666,0.8986060619354248)"/>
<path d="M0 0 C1.66611905 -0.042721 3.33382885 -0.04063832 5 0 C6 1 6 1 6.12025452 3.54539108 C6.11803391 4.68837284 6.11581329 5.8313546 6.11352539 7.00897217 C6.1134549 8.31572906 6.1133844 9.62248596 6.11331177 10.96884155 C6.10817697 12.43072539 6.10295553 13.89260893 6.09765625 15.35449219 C6.09573848 16.88345288 6.09427402 18.41241419 6.0932312 19.94137573 C6.09006193 23.24208477 6.0837808 26.54276845 6.07516479 29.84346771 C6.06168191 35.06208611 6.05575629 40.28069595 6.05102539 45.49932861 C6.03895864 57.52505202 6.01693494 69.55075345 5.99479675 81.57646179 C5.97462463 92.58466778 5.95654685 103.59286627 5.94658184 114.60108685 C5.94159678 119.78888808 5.9317322 124.97665033 5.91815186 130.16443586 C5.91069067 133.39433314 5.90737617 136.62422505 5.9051857 139.85412979 C5.90331392 141.35171199 5.89971342 142.84929319 5.89425278 144.34686661 C5.88702999 146.39226438 5.88658401 148.43768274 5.88647461 150.48309326 C5.884254 151.62758312 5.88203339 152.77207298 5.87974548 153.95124435 C5.99028453 156.75368831 6.35829194 159.27554174 7 162 C4.18026 163.40987 1.84013309 163.12272311 -1.31472778 163.12025452 C-1.96980501 163.12110894 -2.62488224 163.12196337 -3.29981029 163.12284368 C-5.50475121 163.12449671 -7.70961681 163.11898001 -9.91455078 163.11352539 C-11.4911804 163.11324345 -13.06781015 163.11340138 -14.6444397 163.1139679 C-18.93345211 163.11425562 -23.22243673 163.10836291 -27.51144266 163.10139394 C-31.99044562 163.09515626 -36.46944917 163.09455627 -40.94845581 163.09336853 C-49.43406114 163.09025644 -57.91965363 163.08204469 -66.40525329 163.07201904 C-76.06412261 163.06085412 -85.72299253 163.0553465 -95.38186669 163.05032361 C-115.25458497 163.03986198 -135.12729168 163.0222649 -155 163 C-155 162.67 -155 162.34 -155 162 C-102.53 161.67 -50.06 161.34 4 161 C4 108.2 4 55.4 4 1 C2.02 0.505 2.02 0.505 0 0 Z " fill="#D1AE5E" transform="translate(169,13)"/>
<path d="M0 0 C0.99 0 1.98 0 3 0 C3.33 8.91 3.66 17.82 4 27 C6.92746094 27.07347656 6.92746094 27.07347656 9.9140625 27.1484375 C12.48438891 27.22348353 15.05470072 27.29903056 17.625 27.375 C18.91019531 27.4059375 20.19539063 27.436875 21.51953125 27.46875 C23.38544922 27.52675781 23.38544922 27.52675781 25.2890625 27.5859375 C26.43068848 27.6173584 27.57231445 27.6487793 28.74853516 27.68115234 C32.092884 28.00910846 34.865009 28.8165928 38 30 C38 30.33 38 30.66 38 31 C8.5633595 32.44248362 8.5633595 32.44248362 0 32 C-1.88319268 30.11680732 -1.13054285 26.88069863 -1.1328125 24.375 C-1.13376923 23.71290527 -1.13472595 23.05081055 -1.13571167 22.36865234 C-1.13639326 20.96647039 -1.13454042 19.5642853 -1.13037109 18.16210938 C-1.12502246 16.00904287 -1.1303167 13.85618498 -1.13671875 11.703125 C-1.13605796 10.34374954 -1.13477679 8.9843742 -1.1328125 7.625 C-1.13168457 6.37976563 -1.13055664 5.13453125 -1.12939453 3.8515625 C-1 1 -1 1 0 0 Z " fill="#AE7715" transform="translate(16,141)"/>
<path d="M0 0 C0.33 0 0.66 0 1 0 C1.06058594 0.85464844 1.12117187 1.70929688 1.18359375 2.58984375 C1.26738281 3.69457031 1.35117187 4.79929688 1.4375 5.9375 C1.51871094 7.03964844 1.59992187 8.14179688 1.68359375 9.27734375 C1.70418084 11.91109903 1.70418084 11.91109903 3 13 C5.33797003 13.09983473 7.64645203 13.13442886 9.98498535 13.12698364 C10.72425719 13.12854363 11.46352902 13.13010362 12.22520304 13.13171089 C14.72111873 13.1357236 17.2169744 13.13253021 19.71289062 13.12939453 C21.49464453 13.13074845 23.27639815 13.13252833 25.05815125 13.13470459 C29.91131712 13.13928002 34.76446183 13.13748892 39.6176281 13.1343255 C44.68474258 13.13180246 49.75185518 13.13413928 54.81896973 13.13571167 C63.33000007 13.13753353 71.84102175 13.13512663 80.35205078 13.13037109 C90.20693675 13.12492844 100.06180203 13.12669109 109.91668749 13.1321975 C118.36166578 13.13672816 126.80663784 13.13737941 135.25161695 13.13475883 C140.30253914 13.1331958 145.3534516 13.133003 150.40437317 13.13629532 C155.15176683 13.13917336 159.89913368 13.13719959 164.64652443 13.13140106 C166.3941169 13.1300731 168.14171161 13.13046819 169.88930321 13.13266373 C172.26457133 13.13537383 174.63975217 13.13199585 177.01501465 13.12698364 C177.71568133 13.12921436 178.41634801 13.13144509 179.13824701 13.13374341 C182.34752184 13.39064608 182.34752184 13.39064608 185 12 C185.23363881 10.15108054 185.41303635 8.29511969 185.5625 6.4375 C185.64628906 5.42558594 185.73007813 4.41367188 185.81640625 3.37109375 C185.87699219 2.58863281 185.93757812 1.80617187 186 1 C186.33 1 186.66 1 187 1 C187 5.62 187 10.24 187 15 C125.29 15 63.58 15 0 15 C0 10.05 0 5.1 0 0 Z " fill="#927F4E" transform="translate(1,173)"/>
<path d="M0 0 C2.0625 0.4375 2.0625 0.4375 4 1 C3.01 1.66 2.02 2.32 1 3 C0.55598772 5.95118054 0.55598772 5.95118054 0.6526947 9.49108887 C0.65154256 10.16517272 0.65039042 10.83925658 0.64920336 11.53376722 C0.64894424 13.8033782 0.67016826 16.0722902 0.69116211 18.34179688 C0.69528043 19.96443913 0.69805103 21.58708529 0.6995697 23.20973206 C0.70567452 26.70913377 0.72121496 30.20832396 0.74394035 33.70765686 C0.7796391 39.2363723 0.79369624 44.7650111 0.80458069 50.29382324 C0.82874159 61.03030058 0.8754541 71.76662446 0.92417145 82.50301361 C0.98495086 96.1695447 1.03460431 109.83609569 1.06616598 123.50272608 C1.07958961 129.0033634 1.10351453 134.50382783 1.1355685 140.0043869 C1.1536226 143.42096026 1.16355658 146.83752252 1.17133522 150.25413322 C1.17669493 151.84329223 1.1855344 153.43244371 1.19803619 155.02156258 C1.21460955 157.18409754 1.2190132 159.34632121 1.22032166 161.50891113 C1.2260617 162.72123665 1.23180174 163.93356216 1.23771572 165.18262482 C1 168 1 168 -1 170 C-1.02332676 147.98240954 -1.04097808 125.9648211 -1.05181217 103.9472208 C-1.0569756 93.72481944 -1.0640192 83.50242574 -1.07543945 73.2800293 C-1.08538485 64.37357212 -1.09185308 55.46712049 -1.09408849 46.56065792 C-1.09539585 41.84171197 -1.09848324 37.1227819 -1.10573006 32.40384102 C-1.11248801 27.96753861 -1.11461742 23.5312587 -1.11310768 19.09495163 C-1.11338411 17.46184988 -1.11539057 15.82874742 -1.11920547 14.1956501 C-1.12413922 11.9757879 -1.12299949 9.75601204 -1.12025452 7.53614807 C-1.12117631 6.29080575 -1.1220981 5.04546343 -1.12304783 3.76238346 C-1 1 -1 1 0 0 Z " fill="#D0A163" transform="translate(3,3)"/>
<path d="M0 0 C0.33 0 0.66 0 1 0 C1.33 15.51 1.66 31.02 2 47 C5.48789457 47.69757891 7.99715303 48.12387567 11.4230957 48.11352539 C12.26358963 48.11344986 13.10408356 48.11337433 13.970047 48.11329651 C15.30938545 48.10555458 15.30938545 48.10555458 16.67578125 48.09765625 C18.06351997 48.09553383 18.06351997 48.09553383 19.47929382 48.09336853 C22.42372927 48.08778715 25.36808767 48.07523805 28.3125 48.0625 C30.31314994 48.05748259 32.31380108 48.05292011 34.31445312 48.04882812 C39.20966494 48.03782381 44.10481942 48.02057198 49 48 C49 48.66 49 49.32 49 50 C32.83 50 16.66 50 0 50 C-0.72919025 46.35404875 -1.1123451 43.87583453 -1.02172852 40.30151367 C-1.00163223 39.40095749 -0.98153595 38.50040131 -0.96083069 37.57255554 C-0.93379562 36.6140419 -0.90676056 35.65552826 -0.87890625 34.66796875 C-0.85529526 33.67622147 -0.83168427 32.68447418 -0.80735779 31.66267395 C-0.73096281 28.50412822 -0.6468346 25.34584273 -0.5625 22.1875 C-0.50925512 20.04233032 -0.4565149 17.89714805 -0.40429688 15.75195312 C-0.27538048 10.50114209 -0.1401192 5.25052338 0 0 Z " fill="#AF751A" transform="translate(34,105)"/>
<path d="M0 0 C0.99 0.33 1.98 0.66 3 1 C3 16.84 3 32.68 3 49 C4.32 49 5.64 49 7 49 C7 49.66 7 50.32 7 51 C2.125 50.125 2.125 50.125 1 49 C0.53355123 44.34127094 0.29472371 39.67347603 0 35 C-0.33 40.28 -0.66 45.56 -1 51 C-1.33 51 -1.66 51 -2 51 C-2 34.5 -2 18 -2 1 C-1.34 0.67 -0.68 0.34 0 0 Z " fill="#C79D5B" transform="translate(34,103)"/>
<path d="M0 0 C0.66 0 1.32 0 2 0 C2 4.95 2 9.9 2 15 C-14.83 15 -31.66 15 -49 15 C-49 14.34 -49 13.68 -49 13 C-32.83 12.67 -16.66 12.34 0 12 C0 8.04 0 4.08 0 0 Z " fill="#B47612" transform="translate(153,140)"/>
<path d="M0 0 C12.36592489 -0.1574163 24.65415863 0.32292352 37 1 C36.67 1.99 36.34 2.98 36 4 C24.12 4 12.24 4 0 4 C0 2.68 0 1.36 0 0 Z " fill="#C09244" transform="translate(104,32)"/>
<path d="M0 0 C7.59 0 15.18 0 23 0 C23 0.33 23 0.66 23 1 C22.39937744 1.02505615 21.79875488 1.0501123 21.17993164 1.07592773 C18.47388563 1.1915528 15.76821717 1.31442936 13.0625 1.4375 C11.64420898 1.49647461 11.64420898 1.49647461 10.19726562 1.55664062 C9.29814453 1.59853516 8.39902344 1.64042969 7.47265625 1.68359375 C6.22367554 1.73858032 6.22367554 1.73858032 4.94946289 1.79467773 C2.99661142 1.79367103 2.99661142 1.79367103 2 3 C1.83976438 5.88252645 1.74045971 8.74378527 1.68359375 11.62890625 C1.66281265 12.49313705 1.64203156 13.35736786 1.62062073 14.24778748 C1.55502886 17.01927445 1.49619582 19.79085921 1.4375 22.5625 C1.39432392 24.43685923 1.35070994 26.31120843 1.30664062 28.18554688 C1.19933773 32.79026336 1.09809785 37.39507858 1 42 C0.34 41.67 -0.32 41.34 -1 41 C-1.02470696 35.64315122 -1.04286331 30.28633556 -1.05493164 24.92944336 C-1.0599624 23.10684634 -1.06678769 21.28425335 -1.07543945 19.46166992 C-1.08755997 16.84292606 -1.09324086 14.22423553 -1.09765625 11.60546875 C-1.10281754 10.78974899 -1.10797882 9.97402924 -1.11329651 9.1335907 C-1.1136246 5.82986071 -1.05225621 3.15676862 0 0 Z " fill="#B8804A" transform="translate(1,1)"/>
<path d="M0 0 C8.58 2.31 17.16 4.62 26 7 C26 7.99 26 8.98 26 10 C18.08 12.31 10.16 14.62 2 17 C2 16.01 2 15.02 2 14 C4.24976352 13.35334337 6.49981967 12.70770477 8.75 12.0625 C10.00296875 11.70285156 11.2559375 11.34320313 12.546875 10.97265625 C15.02561719 10.27445851 17.49660162 9.60056274 20 9 C18.70906867 8.56033498 17.41719164 8.12344701 16.125 7.6875 C15.31289062 7.41292969 14.50078125 7.13835937 13.6640625 6.85546875 C10.13374556 5.72183325 6.55757385 4.77418581 2.96875 3.84375 C2.3190625 3.5653125 1.669375 3.286875 1 3 C0.67 2.01 0.34 1.02 0 0 Z " fill="#D1AC6A" transform="translate(136,86)"/>
<path d="M0 0 C1.25 1.5625 1.25 1.5625 2 4 C-2.46909079 13.4538459 -8.93054269 19.02526797 -18 24 C-18.78503906 24.44988281 -19.57007813 24.89976563 -20.37890625 25.36328125 C-21.18199219 25.82089844 -21.98507813 26.27851562 -22.8125 26.75 C-23.56144531 27.17796875 -24.31039062 27.6059375 -25.08203125 28.046875 C-27 29 -27 29 -29 29 C-29 28.34 -29 27.68 -29 27 C-28.154375 26.56429687 -27.30875 26.12859375 -26.4375 25.6796875 C-14.49935625 19.41216203 -4.52663523 13.5799057 0 0 Z " fill="#C6AA71" transform="translate(83,58)"/>
<path d="M0 0 C0.33 0 0.66 0 1 0 C1 4.62 1 9.24 1 14 C-15.17 14 -31.34 14 -48 14 C-48 13.67 -48 13.34 -48 13 C-47.42592911 12.98969254 -46.85185822 12.97938507 -46.26039124 12.96876526 C-40.30734338 12.86092566 -34.35445385 12.74631023 -28.40161133 12.62768555 C-26.17736104 12.58426412 -23.95307585 12.54259455 -21.72875977 12.50268555 C-18.53911805 12.44515694 -15.3496532 12.38141316 -12.16015625 12.31640625 C-11.15912369 12.29969376 -10.15809113 12.28298126 -9.12672424 12.26576233 C-8.20584518 12.24581711 -7.28496613 12.22587189 -6.33618164 12.20532227 C-5.52121719 12.18977798 -4.70625275 12.1742337 -3.86659241 12.15821838 C-1.98590881 12.20086137 -1.98590881 12.20086137 -1 11 C-0.76636119 9.15108054 -0.58696365 7.29511969 -0.4375 5.4375 C-0.35371094 4.42558594 -0.26992187 3.41367188 -0.18359375 2.37109375 C-0.09271484 1.19740234 -0.09271484 1.19740234 0 0 Z " fill="#826E3E" transform="translate(187,174)"/>
<path d="M0 0 C4.62 0 9.24 0 14 0 C14 3.63 14 7.26 14 11 C13.34 11 12.68 11 12 11 C11.67 8.69 11.34 6.38 11 4 C7.04 3.67 3.08 3.34 -1 3 C-0.67 2.01 -0.34 1.02 0 0 Z " fill="#B07F31" transform="translate(141,33)"/>
<path d="M0 0 C0.33 0 0.66 0 1 0 C1.06058594 0.85464844 1.12117187 1.70929688 1.18359375 2.58984375 C1.26738281 3.69457031 1.35117187 4.79929688 1.4375 5.9375 C1.51871094 7.03964844 1.59992187 8.14179688 1.68359375 9.27734375 C1.70418084 11.91109903 1.70418084 11.91109903 3 13 C5.88252645 13.16023562 8.74378527 13.25954029 11.62890625 13.31640625 C12.49313705 13.33718735 13.35736786 13.35796844 14.24778748 13.37937927 C17.01927445 13.44497114 19.79085921 13.50380418 22.5625 13.5625 C24.43685923 13.60567608 26.31120843 13.64929006 28.18554688 13.69335938 C32.79026336 13.80066227 37.39507858 13.90190215 42 14 C42 14.33 42 14.66 42 15 C28.14 15 14.28 15 0 15 C0 10.05 0 5.1 0 0 Z " fill="#987338" transform="translate(1,173)"/>
<path d="M0 0 C2.0625 0.4375 2.0625 0.4375 4 1 C3.01 1.66 2.02 2.32 1 3 C0.66236412 5.97294974 0.51086962 8.74742502 0.48828125 11.7265625 C0.47033005 12.58937836 0.45237885 13.45219421 0.43388367 14.34115601 C0.3796148 17.10238731 0.34583243 19.86344418 0.3125 22.625 C0.2793415 24.49481603 0.24485322 26.364609 0.20898438 28.234375 C0.12387904 32.82279109 0.05714746 37.41115396 0 42 C-0.33 42 -0.66 42 -1 42 C-1.02464638 36.17928378 -1.0428343 30.35859766 -1.05493164 24.5378418 C-1.05997267 22.55606559 -1.06680538 20.57429311 -1.07543945 18.5925293 C-1.08751515 15.75047891 -1.09323045 12.90847753 -1.09765625 10.06640625 C-1.10281754 9.17474258 -1.10797882 8.28307892 -1.11329651 7.36439514 C-1.11349177 5.24259399 -1.0621003 3.1208922 -1 1 C-0.67 0.67 -0.34 0.34 0 0 Z " fill="#D19858" transform="translate(3,3)"/>
<path d="M0 0 C5.94 0 11.88 0 18 0 C18 3.3 18 6.6 18 10 C17.67 10 17.34 10 17 10 C17 8.02 17 6.04 17 4 C13.19854082 2.73284694 9.57674304 2.63052006 5.59375 2.37890625 C3 2 3 2 0 0 Z " fill="#C27B20" transform="translate(170,1)"/>
<path d="M0 0 C7.59 0 15.18 0 23 0 C23 0.33 23 0.66 23 1 C22.39937744 1.02505615 21.79875488 1.0501123 21.17993164 1.07592773 C18.47388563 1.1915528 15.76821717 1.31442936 13.0625 1.4375 C11.64420898 1.49647461 11.64420898 1.49647461 10.19726562 1.55664062 C9.29814453 1.59853516 8.39902344 1.64042969 7.47265625 1.68359375 C6.22367554 1.73858032 6.22367554 1.73858032 4.94946289 1.79467773 C2.99661142 1.79367103 2.99661142 1.79367103 2 3 C1.63239269 5.32817964 1.29758419 7.6618385 1 10 C0.67 10 0.34 10 0 10 C0 6.7 0 3.4 0 0 Z " fill="#B8711E" transform="translate(1,1)"/>
<path d="M0 0 C0.66 0.33 1.32 0.66 2 1 C1.67 1.33 1.34 1.66 1 2 C4.3 2.99 7.6 3.98 11 5 C11 5.66 11 6.32 11 7 C6.28596212 6.52060632 2.33420699 6.03165952 -2 4 C-2 3.01 -2 2.02 -2 1 C-1.34 0.67 -0.68 0.34 0 0 Z " fill="#D3AE6F" transform="translate(30,92)"/>
<path d="M0 0 C2.12161334 2.12161334 2.92986249 3.7733159 4.125 6.5 C4.47820312 7.2940625 4.83140625 8.088125 5.1953125 8.90625 C6 11 6 11 6 13 C3 12 3 12 2.05078125 10.29296875 C1.80714844 9.59816406 1.56351562 8.90335938 1.3125 8.1875 C1.06113281 7.50042969 0.80976562 6.81335937 0.55078125 6.10546875 C0 4 0 4 0 0 Z " fill="#D1AC67" transform="translate(103,54)"/>
<path d="M0 0 C0.99 0 1.98 0 3 0 C3 3.3 3 6.6 3 10 C2.34 10 1.68 10 1 10 C0.67 6.7 0.34 3.4 0 0 Z " fill="#BA7520" transform="translate(152,34)"/>
<path d="M0 0 C0.33 0 0.66 0 1 0 C1 4.62 1 9.24 1 14 C-0.98 14 -2.96 14 -5 14 C-4.35546875 13.62230469 -3.7109375 13.24460938 -3.046875 12.85546875 C-0.75970238 11.13940092 -0.75970238 11.13940092 -0.390625 8.30078125 C-0.34421875 7.31464844 -0.2978125 6.32851562 -0.25 5.3125 C-0.19328125 4.31863281 -0.1365625 3.32476562 -0.078125 2.30078125 C-0.05234375 1.54152344 -0.0265625 0.78226563 0 0 Z " fill="#A47828" transform="translate(187,174)"/>
<path d="M0 0 C0.99 0.33 1.98 0.66 3 1 C0.03 3.475 0.03 3.475 -3 6 C-2.42655063 3.13275314 -2.1385485 2.1385485 0 0 Z M-7 8 C-6.01 8.495 -6.01 8.495 -5 9 C-5.99 9.495 -5.99 9.495 -7 10 C-7 9.34 -7 8.68 -7 8 Z " fill="#A07726" transform="translate(111,109)"/>
<path d="M0 0 C0.99 0.33 1.98 0.66 3 1 C2.67 5.29 2.34 9.58 2 14 C1.67 14 1.34 14 1 14 C0.67 9.38 0.34 4.76 0 0 Z " fill="#CEA65F" transform="translate(34,103)"/>
<path d="M0 0 C0.99 0.33 1.98 0.66 3 1 C3 1.66 3 2.32 3 3 C2.01 3.495 2.01 3.495 1 4 C0.27306096 5.97888961 -0.39816251 7.97954558 -1 10 C-2.46726798 6.18510326 -1.43336419 3.70988378 0 0 Z " fill="#CAA060" transform="translate(93,28)"/>
<path d="M0 0 C1.1875 1.6875 1.1875 1.6875 2 4 C0.6875 6.75 0.6875 6.75 -1 9 C-1.33 9 -1.66 9 -2 9 C-2.20140476 5.37471432 -1.85776765 3.13498292 0 0 Z " fill="#B79B5C" transform="translate(83,58)"/>
<path d="M0 0 C0.66 0.33 1.32 0.66 2 1 C2.625 3.5625 2.625 3.5625 3 6 C0.69 6 -1.62 6 -4 6 C-2.68 5.67 -1.36 5.34 0 5 C0 3.35 0 1.7 0 0 Z " fill="#C9A75B" transform="translate(173,169)"/>
<path d="M0 0 C0.66 0 1.32 0 2 0 C3.85776765 3.13498292 4.20140476 5.37471432 4 9 C1.49701566 6.06171403 0.53069061 3.82097239 0 0 Z " fill="#B59659" transform="translate(83,128)"/>
</svg>
